<svg xmlns="http://www.w3.org/2000/svg" width="1600" height="2000" viewBox="0 0 1600 2000">
<defs>
  <filter id="shadow" x="-20%" y="-20%" width="140%" height="140%">
    <feDropShadow dx="0" dy="2" stdDeviation="3" flood-color="#000" flood-opacity="0.28"/>
  </filter>
</defs>
<image href="/assets/maps/fuji-routes-relative.png" x="0" y="0" width="1600" height="2000" />
<g filter="url(#shadow)">
  <rect x="40" y="40" width="760" height="110" rx="26" fill="#ffffff" opacity="0.86"/>
</g>
<text x="72" y="92" font-size="44" font-family="-apple-system,BlinkMacSystemFont,'PingFang SC','Hiragino Sans GB','Microsoft YaHei',Arial" fill="#111827">南线 / 北线（相对位置）</text>
<g filter="url(#shadow)">
  <rect x="72" y="108" width="168" height="50" rx="18" fill="#DBEAFE" opacity="0.95"/>
  <rect x="256" y="108" width="168" height="50" rx="18" fill="#FCE7F3" opacity="0.95"/>
</g>
<text x="104" y="144" font-size="28" font-family="-apple-system,BlinkMacSystemFont,'PingFang SC','Hiragino Sans GB','Microsoft YaHei',Arial" fill="#1D4ED8">北线</text>
<text x="288" y="144" font-size="28" font-family="-apple-system,BlinkMacSystemFont,'PingFang SC','Hiragino Sans GB','Microsoft YaHei',Arial" fill="#BE185D">南线</text>
<circle cx="232.6" cy="672.0" r="12" fill="#ffffff" opacity="0.85"/>
<circle cx="232.6" cy="672.0" r="8" fill="#2563EB" opacity="0.95"/>
<path d="M 232.6 672.0 L 246.6 662.0" stroke="#2563EB" stroke-width="4" opacity="0.7"/>
<g filter="url(#shadow)">
  <rect x="246.6" y="610.0" width="220" height="66" rx="22" fill="#DBEAFE" opacity="0.92" stroke="#2563EB" stroke-width="2"/>
</g>
<text x="268.6" y="652.0" font-size="32" font-weight="700" font-family="-apple-system,BlinkMacSystemFont,'PingFang SC','Hiragino Sans GB','Microsoft YaHei',Arial" fill="#111827">朝雾高原</text>
<circle cx="603.0" cy="370.6" r="12" fill="#ffffff" opacity="0.85"/>
<circle cx="603.0" cy="370.6" r="8" fill="#2563EB" opacity="0.95"/>
<path d="M 603.0 370.6 L 617.0 360.6" stroke="#2563EB" stroke-width="4" opacity="0.7"/>
<g filter="url(#shadow)">
  <rect x="617.0" y="308.6" width="220" height="66" rx="22" fill="#DBEAFE" opacity="0.92" stroke="#2563EB" stroke-width="2"/>
</g>
<text x="639.0" y="350.6" font-size="32" font-weight="700" font-family="-apple-system,BlinkMacSystemFont,'PingFang SC','Hiragino Sans GB','Microsoft YaHei',Arial" fill="#111827">西湖畔</text>
<circle cx="890.6" cy="277.6" r="12" fill="#ffffff" opacity="0.85"/>
<circle cx="890.6" cy="277.6" r="8" fill="#2563EB" opacity="0.95"/>
<path d="M 890.6 277.6 L 904.6 263.6" stroke="#2563EB" stroke-width="4" opacity="0.7"/>
<g filter="url(#shadow)">
  <rect x="904.6" y="211.6" width="252" height="66" rx="22" fill="#DBEAFE" opacity="0.92" stroke="#2563EB" stroke-width="2"/>
</g>
<text x="926.6" y="253.6" font-size="32" font-weight="700" font-family="-apple-system,BlinkMacSystemFont,'PingFang SC','Hiragino Sans GB','Microsoft YaHei',Arial" fill="#111827">河口湖长崎公园</text>
<circle cx="886.2" cy="370.6" r="12" fill="#ffffff" opacity="0.85"/>
<circle cx="886.2" cy="370.6" r="8" fill="#2563EB" opacity="0.95"/>
<path d="M 886.2 370.6 L 900.2 380.6" stroke="#2563EB" stroke-width="4" opacity="0.7"/>
<g filter="url(#shadow)">
  <rect x="900.2" y="328.6" width="220" height="66" rx="22" fill="#DBEAFE" opacity="0.92" stroke="#2563EB" stroke-width="2"/>
</g>
<text x="922.2" y="370.6" font-size="32" font-weight="700" font-family="-apple-system,BlinkMacSystemFont,'PingFang SC','Hiragino Sans GB','Microsoft YaHei',Arial" fill="#111827">河口湖罗森</text>
<circle cx="1076.5" cy="394.0" r="12" fill="#ffffff" opacity="0.85"/>
<circle cx="1076.5" cy="394.0" r="8" fill="#111827" opacity="0.95"/>
<path d="M 1076.5 394.0 L 1090.5 408.0" stroke="#111827" stroke-width="4" opacity="0.7"/>
<g filter="url(#shadow)">
  <rect x="1090.5" y="356.0" width="220" height="66" rx="22" fill="#FFFFFF" opacity="0.92" stroke="#111827" stroke-width="2"/>
</g>
<text x="1112.5" y="398.0" font-size="32" font-weight="700" font-family="-apple-system,BlinkMacSystemFont,'PingFang SC','Hiragino Sans GB','Microsoft YaHei',Arial" fill="#111827">日川时计店</text>
<circle cx="1041.1" cy="429.0" r="12" fill="#ffffff" opacity="0.85"/>
<circle cx="1041.1" cy="429.0" r="8" fill="#111827" opacity="0.95"/>
<path d="M 1041.1 429.0 L 1055.1 455.0" stroke="#111827" stroke-width="4" opacity="0.7"/>
<g filter="url(#shadow)">
  <rect x="1055.1" y="403.0" width="220" height="66" rx="22" fill="#FFFFFF" opacity="0.92" stroke="#111827" stroke-width="2"/>
</g>
<text x="1077.1" y="445.0" font-size="32" font-weight="700" font-family="-apple-system,BlinkMacSystemFont,'PingFang SC','Hiragino Sans GB','Microsoft YaHei',Arial" fill="#111827">富士山站</text>
<circle cx="1473.9" cy="658.8" r="12" fill="#ffffff" opacity="0.85"/>
<circle cx="1473.9" cy="658.8" r="8" fill="#111827" opacity="0.95"/>
<path d="M 1473.9 658.8 L 1253.9 658.8" stroke="#111827" stroke-width="4" opacity="0.7"/>
<g filter="url(#shadow)">
  <rect x="1253.9" y="606.8" width="224" height="66" rx="22" fill="#FFFFFF" opacity="0.92" stroke="#111827" stroke-width="2"/>
</g>
<text x="1275.9" y="648.8" font-size="32" font-weight="700" font-family="-apple-system,BlinkMacSystemFont,'PingFang SC','Hiragino Sans GB','Microsoft YaHei',Arial" fill="#111827">山中湖平野滨</text>
<circle cx="566.7" cy="1751.6" r="12" fill="#ffffff" opacity="0.85"/>
<circle cx="566.7" cy="1751.6" r="8" fill="#DB2777" opacity="0.95"/>
<path d="M 566.7 1751.6 L 580.7 1741.6" stroke="#DB2777" stroke-width="4" opacity="0.7"/>
<g filter="url(#shadow)">
  <rect x="580.7" y="1689.6" width="224" height="66" rx="22" fill="#FCE7F3" opacity="0.92" stroke="#DB2777" stroke-width="2"/>
</g>
<text x="602.7" y="1731.6" font-size="32" font-weight="700" font-family="-apple-system,BlinkMacSystemFont,'PingFang SC','Hiragino Sans GB','Microsoft YaHei',Arial" fill="#111827">富士山梦大桥</text>
<circle cx="445.9" cy="1687.6" r="12" fill="#ffffff" opacity="0.85"/>
<circle cx="445.9" cy="1687.6" r="8" fill="#DB2777" opacity="0.95"/>
<path d="M 445.9 1687.6 L 225.9 1677.6" stroke="#DB2777" stroke-width="4" opacity="0.7"/>
<g filter="url(#shadow)">
  <rect x="225.9" y="1625.6" width="220" height="66" rx="22" fill="#FCE7F3" opacity="0.92" stroke="#DB2777" stroke-width="2"/>
</g>
<text x="247.9" y="1667.6" font-size="32" font-weight="700" font-family="-apple-system,BlinkMacSystemFont,'PingFang SC','Hiragino Sans GB','Microsoft YaHei',Arial" fill="#111827">竪堀駅</text>
<circle cx="469.1" cy="1753.4" r="12" fill="#ffffff" opacity="0.85"/>
<circle cx="469.1" cy="1753.4" r="8" fill="#DB2777" opacity="0.95"/>
<path d="M 469.1 1753.4 L 483.1 1767.4" stroke="#DB2777" stroke-width="4" opacity="0.7"/>
<g filter="url(#shadow)">
  <rect x="483.1" y="1715.4" width="220" height="66" rx="22" fill="#FCE7F3" opacity="0.92" stroke="#DB2777" stroke-width="2"/>
</g>
<text x="505.1" y="1757.4" font-size="32" font-weight="700" font-family="-apple-system,BlinkMacSystemFont,'PingFang SC','Hiragino Sans GB','Microsoft YaHei',Arial" fill="#111827">富士站西口</text>
</svg>