<svg xmlns="http://www.w3.org/2000/svg" width="220" height="44" viewBox="0 0 220 44">
  <rect x="0" y="0" width="220" height="44" rx="12" fill="#ffffff"/>
  <path d="M22 30c6.6 0 12-5.4 12-12S28.6 6 22 6 10 11.4 10 18s5.4 12 12 12Z" fill="#4f6aa9" opacity="0.14"/>
  <path d="M18 23.5c4.1 0 7.5-3.4 7.5-7.5S22.1 8.5 18 8.5 10.5 11.9 10.5 16s3.4 7.5 7.5 7.5Z" fill="#4f6aa9" opacity="0.28"/>
  <path d="M14.5 19.6c2.2 0 4-1.8 4-4s-1.8-4-4-4-4 1.8-4 4 1.8 4 4 4Z" fill="#4f6aa9"/>
  <text x="44" y="19" font-family="ui-sans-serif,system-ui,-apple-system,Segoe UI,Roboto" font-size="12" fill="#0b1220" letter-spacing="1.5">shenlan</text>
  <text x="44" y="34" font-family="ui-sans-serif,system-ui,-apple-system,Segoe UI,Roboto" font-size="11" fill="#6b7280" letter-spacing=".6">photography</text>
</svg>
